<svg preserveAspectRatio="none" width="1600" height="555" viewBox="0 0 1600 555" fill="none" xmlns="http://www.w3.org/2000/svg">
<path d="M-20 63.8296C-20 63.8296 356.431 16.3815 585 26.3856C753.895 33.7779 845.971 73.3012 1015 76.3856C1199.23 79.7473 1456.46 -59.3356 1485 122.886C1489.56 152.015 1489.5 169.247 1485 198.386C1456.72 381.401 1199.33 260.363 1015 261.386C846.316 262.322 753.685 301.534 585 302.386C400.653 303.317 143.253 161.321 115 343.386C110.538 372.136 110.648 389.119 115 417.886C142.776 601.484 400.419 490.387 585 489.886C753.632 489.428 846.392 526.512 1015 529.386C1244.24 533.293 1631.5 476.83 1631.5 476.83" stroke="#323550" stroke-width="50"/>
<path d="M-20 63.8296C-20 63.8296 356.431 16.3815 585 26.3856C753.895 33.7779 845.971 73.3012 1015 76.3856C1199.23 79.7473 1456.46 -59.3356 1485 122.886C1489.56 152.015 1489.5 169.247 1485 198.386C1456.72 381.401 1199.33 260.363 1015 261.386C846.316 262.322 753.685 301.534 585 302.386C400.653 303.317 143.253 161.321 115 343.386C110.538 372.136 110.648 389.119 115 417.886C142.776 601.484 400.419 490.387 585 489.886C753.632 489.428 846.392 526.512 1015 529.386C1244.24 533.293 1631.5 476.83 1631.5 476.83" stroke="white" stroke-width="44"/>
<path d="M-20 63.8296C-20 63.8296 356.431 16.3815 585 26.3856C753.895 33.7779 845.971 73.3012 1015 76.3856C1199.23 79.7473 1456.46 -59.3356 1485 122.886C1489.56 152.015 1489.5 169.247 1485 198.386C1456.72 381.401 1199.33 260.363 1015 261.386C846.316 262.322 753.685 301.534 585 302.386C400.653 303.317 143.253 161.321 115 343.386C110.538 372.136 110.648 389.119 115 417.886C142.776 601.484 400.419 490.387 585 489.886C753.632 489.428 846.392 526.512 1015 529.386C1244.24 533.293 1631.5 476.83 1631.5 476.83" stroke="#323555" stroke-width="2" stroke-dasharray="12 36"/>
</svg>
