<svg preserveAspectRatio="none" width="1600" height="545" viewBox="0 0 1600 545" fill="none" xmlns="http://www.w3.org/2000/svg">
<path d="M-20 59C-20 59 356.431 11.5519 585 21.556C753.895 28.9483 845.971 68.4716 1015 71.556C1199.23 74.9178 1456.46 -64.1652 1485 118.056C1489.56 147.186 1489.5 164.417 1485 193.556C1456.72 376.572 1199.33 255.533 1015 256.556C846.316 257.492 753.685 296.704 585 297.556C400.653 298.487 143.253 156.492 115 338.556C110.538 367.306 110.648 384.289 115 413.056C142.776 596.654 400.419 485.557 585 485.056C753.632 484.598 846.392 521.683 1015 524.556C1244.24 528.463 1631.5 472 1631.5 472" stroke="#323550" stroke-width="40"/>
<path d="M-20 59C-20 59 356.431 11.5519 585 21.556C753.895 28.9483 845.971 68.4716 1015 71.556C1199.23 74.9178 1456.46 -64.1652 1485 118.056C1489.56 147.186 1489.5 164.417 1485 193.556C1456.72 376.572 1199.33 255.533 1015 256.556C846.316 257.492 753.685 296.704 585 297.556C400.653 298.487 143.253 156.492 115 338.556C110.538 367.306 110.648 384.289 115 413.056C142.776 596.654 400.419 485.557 585 485.056C753.632 484.598 846.392 521.683 1015 524.556C1244.24 528.463 1631.5 472 1631.5 472" stroke="white" stroke-width="30"/>
</svg>
