<svg preserveAspectRatio="none" width="1600" height="1531" viewBox="0 0 1600 1531" fill="none" xmlns="http://www.w3.org/2000/svg">
<g clip-path="url(#clip0_4022_4)">
<path opacity="0.43" d="M500.138 1694.16C575.938 1624.76 661.77 1562.99 704.92 1467.34C731.286 1408.9 749.804 1334.22 741.073 1270.01C736.545 1236.71 712.658 1207.85 701.369 1176.54C677.704 1110.9 716.095 1045.87 754.253 993.837C792.038 942.315 865.235 869.031 855.624 799.19C851.803 771.422 829.466 747.451 815.181 724.216C801.086 701.292 789.716 679.019 785.448 652.338C777.558 603.005 775.086 543.564 795.309 496.949C811.331 460.017 834.418 419.485 836.63 378.627C837.893 355.302 830.765 336.493 819.245 316.245C788.3 261.854 744.631 211.573 705.245 163.185C612.434 49.1605 503.373 -47.8584 405.098 -156.802C327.202 -243.153 270.047 -332.436 228.16 -439.032" stroke="#323555" stroke-opacity="0.15" stroke-linecap="round"/>
<path opacity="0.46" d="M529.754 1708.68C599.12 1632.97 679.129 1563.99 713.73 1464.99C734.873 1404.5 746.795 1328.53 732.521 1265.36C725.119 1232.6 698.844 1205.95 684.888 1175.75C655.634 1112.45 688.165 1044.35 721.596 989.225C754.701 934.632 821.139 855.287 805.5 786.582C799.282 759.267 774.974 737.344 758.741 715.453C742.724 693.855 729.474 672.668 722.907 646.473C710.764 598.04 703.132 539.069 719.193 490.892C731.917 452.723 751.356 410.354 750.001 369.479C749.227 346.144 740.499 328.037 727.277 308.88C691.758 257.417 643.94 211.156 600.548 166.407C498.295 60.9569 381.356 -26.1448 274.11 -126.06C189.104 -205.255 124.475 -289.176 73.5278 -391.665" stroke="#323555" stroke-opacity="0.15" stroke-linecap="round"/>
<path opacity="0.49" d="M561.486 1723.13C623.896 1641.71 697.48 1566.06 723.277 1464.48C739.041 1402.41 744.282 1325.72 724.58 1264.07C714.363 1232.09 685.902 1207.84 669.389 1178.99C634.772 1118.51 661.202 1047.87 689.657 990.066C717.834 932.827 777.015 848.039 755.471 780.991C746.906 754.334 720.815 734.621 702.759 714.237C684.945 694.126 669.918 674.183 661.103 648.672C644.804 601.504 632.074 543.45 643.854 494.082C653.188 454.969 668.835 411.09 663.926 370.508C661.124 347.341 650.863 330.071 636.041 312.147C596.224 263.997 544.624 222.096 497.559 181.315C386.652 85.2176 262.733 8.66737 147.341 -81.4848C55.8779 -152.942 -15.7257 -230.877 -75.3364 -328.493" stroke="#323555" stroke-opacity="0.15" stroke-linecap="round"/>
<path opacity="0.52" d="M595.317 1737.33C650.304 1650.83 716.911 1569.11 733.717 1465.72C743.987 1402.55 742.515 1325.74 717.539 1266.06C704.587 1235.11 674.159 1213.44 655.216 1186.14C615.505 1128.94 635.64 1056.3 658.907 996.276C681.947 936.833 733.428 847.265 706.151 782.379C695.305 756.581 667.631 739.222 647.891 720.496C628.416 702.02 611.728 683.469 600.734 658.835C580.407 613.287 562.681 556.59 570.096 506.411C575.971 466.655 587.711 421.604 579.289 381.624C574.481 358.8 562.769 342.497 546.46 325.938C502.652 281.458 447.666 244.224 397.289 207.712C278.578 121.672 148.628 56.2268 25.9733 -23.5031C-71.2457 -86.6989 -149.273 -158.073 -217.086 -250.084" stroke="#323555" stroke-opacity="0.15" stroke-linecap="round"/>
<path opacity="0.55" d="M631.215 1751.09C678.37 1660.19 737.501 1573.04 745.199 1468.64C749.902 1404.85 741.736 1328.5 711.68 1271.25C696.094 1241.56 663.932 1222.62 642.705 1197.09C598.207 1143.58 611.899 1069.52 629.808 1007.73C647.541 946.541 690.941 852.888 658.142 790.653C645.101 765.909 616.055 751.03 594.783 734.1C573.795 717.396 555.575 700.376 542.488 676.803C518.291 633.219 495.709 578.308 498.707 527.701C501.082 487.607 508.83 441.732 496.963 402.657C490.188 380.35 477.113 365.134 459.444 350.065C411.979 309.583 354.029 277.288 300.725 245.311C175.119 169.957 40.1278 116.086 -88.8515 47.3578C-191.084 -7.1177 -274.937 -71.4029 -350.429 -157.124" stroke="#323555" stroke-opacity="0.15" stroke-linecap="round"/>
<path opacity="0.58" d="M669.132 1764.25C708.107 1669.65 759.323 1577.75 757.863 1473.13C756.971 1409.21 742.178 1333.91 707.277 1279.52C689.178 1251.31 655.526 1235.25 632.179 1211.67C583.235 1162.26 590.389 1087.33 602.809 1024.26C615.108 961.797 650.106 864.786 612.039 805.671C596.905 782.168 566.708 769.874 544.066 754.865C521.727 740.057 502.114 724.693 487.035 702.359C459.156 661.066 431.894 608.355 430.457 557.71C429.318 517.585 433.02 471.238 417.8 433.364C409.112 411.743 394.775 397.729 375.881 384.259C325.124 348.075 264.649 320.952 208.827 293.742C77.2825 229.622 -61.7218 187.705 -196.043 130.474C-302.509 85.1118 -391.547 28.3872 -474.139 -50.4057" stroke="#323555" stroke-opacity="0.15" stroke-linecap="round"/>
<path opacity="0.61" d="M709.002 1776.62C739.512 1679.06 782.436 1583.12 771.841 1479.1C765.367 1415.53 744.068 1341.84 704.59 1290.72C684.118 1264.21 649.233 1251.14 623.944 1229.7C570.93 1184.75 571.499 1109.53 578.343 1045.65C585.121 982.405 611.463 882.788 568.423 827.236C551.311 805.15 520.193 795.531 496.355 782.552C472.835 769.747 451.978 756.152 435.024 735.226C403.677 696.534 371.947 646.421 366.091 596.125C361.451 556.277 361.083 509.813 342.631 473.427C332.097 452.655 316.608 439.947 296.632 428.176C242.971 396.555 180.433 374.798 122.515 352.551C-13.9656 300.126 -155.928 270.453 -294.569 225.128C-404.46 189.202 -498.004 140.453 -587.063 69.1733" stroke="#323555" stroke-opacity="0.15" stroke-linecap="round"/>
<path opacity="0.64" d="M750.749 1788.04C772.575 1688.28 806.894 1589.04 787.255 1486.4C775.255 1423.69 747.619 1352.18 703.868 1304.71C681.18 1280.09 645.327 1270.1 618.289 1250.95C561.611 1210.79 555.599 1135.86 556.823 1071.68C558.036 1008.13 575.535 906.677 527.853 855.106C508.895 834.602 477.092 827.724 452.238 816.87C427.716 806.162 405.775 794.436 387.076 775.074C352.503 739.273 316.549 692.136 306.324 642.573C298.223 603.306 293.794 557.083 272.252 522.46C259.955 502.694 243.432 491.386 222.527 481.4C166.369 454.573 102.242 438.336 42.6695 421.21C-97.7114 380.853 -241.557 363.621 -383.467 330.519C-495.948 304.281 -593.286 263.86 -688.132 200.622" stroke="#323555" stroke-opacity="0.15" stroke-linecap="round"/>
<path opacity="0.67" d="M794.28 1798.35C807.269 1697.15 832.736 1595.4 804.215 1494.93C786.788 1433.54 753.031 1364.75 705.344 1321.28C680.614 1298.75 644.065 1291.91 615.485 1275.19C555.574 1240.13 543.036 1166.06 538.639 1102.07C534.286 1038.7 542.822 936.19 490.864 888.986C470.206 870.218 437.958 866.128 412.278 857.477C386.94 848.942 364.082 839.172 343.782 821.518C306.247 788.876 266.347 745.07 251.836 696.619C240.34 658.232 231.888 612.604 207.424 580.005C193.459 561.395 176.028 551.571 154.353 543.441C96.1258 521.603 30.8951 510.997 -29.8813 499.111C-173.099 471.103 -317.74 466.415 -461.844 445.761C-576.065 429.39 -676.458 397.589 -776.367 342.857" stroke="#323555" stroke-opacity="0.15" stroke-linecap="round"/>
<path opacity="0.7" d="M839.488 1807.41C843.557 1705.55 859.995 1602.06 822.82 1504.53C800.105 1444.93 760.492 1379.39 709.233 1340.25C682.652 1319.96 645.682 1316.32 615.778 1302.15C553.091 1272.45 534.131 1199.81 524.156 1136.49C514.278 1073.8 513.801 971.023 457.964 928.539C435.765 911.648 403.316 910.37 377.004 903.984C351.043 897.684 327.441 889.939 305.694 874.125C265.486 844.886 221.947 804.739 203.266 757.77C188.466 720.557 176.063 675.872 148.865 645.544C133.338 628.23 115.133 619.961 92.8517 613.747C32.9971 597.054 -32.8439 592.148 -94.3645 585.582C-239.335 570.11 -383.683 577.974 -528.892 569.899C-643.989 563.499 -746.676 540.541 -850.888 494.719" stroke="#323555" stroke-opacity="0.15" stroke-linecap="round"/>
<path opacity="0.73" d="M886.256 1815.07C881.39 1713.34 888.69 1608.91 843.156 1515.06C815.333 1457.71 770.173 1395.9 715.735 1361.4C687.504 1343.5 650.394 1343.08 619.392 1331.57C554.405 1307.44 529.178 1236.78 513.709 1174.63C498.39 1113.08 488.919 1010.83 429.632 973.386C406.06 958.497 373.655 960.035 346.91 955.959C320.522 951.936 296.355 946.272 273.329 932.416C230.754 906.798 183.909 870.611 161.207 825.481C143.22 789.726 126.965 746.326 97.2426 718.496C80.2751 702.609 61.4333 695.955 38.7149 691.701C-22.3139 680.271 -88.2687 681.09 -150.069 679.884C-295.699 677.041 -438.666 697.37 -583.886 701.91C-698.991 705.509 -803.195 691.554 -910.92 654.973" stroke="#323555" stroke-opacity="0.15" stroke-linecap="round"/>
<path opacity="0.76" d="M934.454 1821.2C920.706 1720.38 918.831 1615.82 865.296 1526.36C832.585 1471.7 782.227 1414.1 725.025 1384.48C695.362 1369.11 658.389 1371.91 626.526 1363.14C559.733 1344.74 528.441 1276.61 507.603 1216.1C486.969 1156.17 468.593 1055.24 406.307 1023.1C381.543 1010.33 349.426 1014.67 322.45 1012.93C295.834 1011.21 271.286 1007.66 247.155 995.869C202.538 974.061 152.747 942.105 126.201 899.158C105.17 865.132 85.1922 823.348 53.1741 798.226C34.8959 783.884 15.5606 778.895 -7.42316 776.628C-69.1647 770.539 -134.737 777.067 -196.351 781.219C-341.544 791.003 -482.057 823.617 -626.195 840.713C-740.442 854.264 -845.377 849.401 -955.795 822.327" stroke="#323555" stroke-opacity="0.15" stroke-linecap="round"/>
<path opacity="0.79" d="M983.942 1825.69C961.434 1726.55 950.416 1622.67 889.3 1538.28C851.956 1486.72 796.791 1433.76 737.261 1409.24C706.391 1396.52 669.835 1402.5 637.351 1396.53C569.258 1384.02 532.148 1318.93 506.111 1260.52C480.328 1202.67 453.203 1103.82 388.394 1077.24C362.627 1066.67 331.038 1073.77 304.035 1074.37C277.392 1074.97 252.647 1073.57 227.596 1063.92C181.277 1046.08 128.92 1018.6 98.7388 978.159C74.8269 946.121 51.2849 906.271 17.2166 884.045C-2.232 871.357 -21.9143 868.066 -44.9899 867.802C-106.978 867.09 -171.675 879.267 -232.64 888.736C-376.303 911.05 -513.311 955.677 -655.284 985.176C-767.816 1008.56 -872.689 1012.81 -984.965 995.43" stroke="#323555" stroke-opacity="0.15" stroke-linecap="round"/>
<path opacity="0.82" d="M1034.57 1828.44C1003.49 1731.74 983.432 1629.32 915.213 1550.65C873.528 1502.58 813.981 1454.67 752.577 1435.42C720.734 1425.44 684.868 1434.56 652.011 1431.44C583.133 1424.88 540.498 1363.33 509.469 1307.46C478.742 1252.14 443.092 1156.13 376.253 1135.29C349.678 1127.01 318.855 1136.81 292.027 1139.75C265.559 1142.66 240.804 1143.41 215.023 1135.98C167.355 1122.24 112.832 1099.43 79.25 1061.81C52.6441 1032 25.7229 994.386 -10.1346 975.223C-30.6046 964.283 -50.4851 962.714 -73.4786 964.45C-135.246 969.114 -198.583 986.836 -258.442 1001.54C-399.497 1036.19 -531.975 1092.47 -670.72 1134.13C-780.692 1167.14 -884.716 1180.46 -998 1172.9" stroke="#323555" stroke-opacity="0.15" stroke-linecap="round"/>
<path opacity="0.85" d="M1086.18 1829.34C1046.78 1735.83 1017.86 1635.66 943.065 1563.3C897.363 1519.09 833.893 1476.58 771.082 1462.75C738.509 1455.58 703.602 1467.77 670.619 1467.5C601.478 1466.96 553.651 1409.41 517.876 1356.51C482.449 1304.13 438.562 1211.69 370.201 1196.76C343.022 1190.82 313.193 1203.24 286.744 1208.49C260.648 1213.68 236.07 1216.57 209.755 1211.41C161.1 1201.88 104.827 1183.91 68.1057 1149.39C39.0124 1122.03 8.92287 1086.94 -28.4495 1070.99C-49.7844 1061.88 -69.7127 1062.04 -92.4511 1065.76C-153.534 1075.75 -215.036 1098.88 -273.34 1118.7C-410.731 1165.4 -537.692 1232.88 -672.171 1286.36C-778.762 1328.74 -881.154 1351.01 -994.591 1353.31" stroke="#323555" stroke-opacity="0.15" stroke-linecap="round"/>
<path opacity="0.88" d="M1138.6 1828.34C1091.21 1738.72 1053.66 1641.57 972.872 1576.07C923.508 1536.04 856.604 1499.25 792.862 1490.94C759.807 1486.64 726.12 1501.79 693.261 1504.39C624.378 1509.84 571.733 1456.74 531.493 1407.21C491.644 1358.17 439.873 1270.01 370.509 1261.08C342.931 1257.53 314.321 1272.48 288.448 1280C262.92 1287.42 238.704 1292.43 212.056 1289.58C162.783 1284.31 105.188 1271.31 65.612 1240.15C34.2571 1215.46 1.23392 1183.16 -37.3678 1170.53C-59.4044 1163.31 -79.2302 1165.2 -101.543 1170.88C-161.481 1186.12 -220.689 1214.46 -277.003 1239.24C-409.703 1297.63 -530.204 1375.77 -659.414 1440.64C-761.828 1492.06 -861.82 1523.09 -974.553 1535.22" stroke="#323555" stroke-opacity="0.15" stroke-linecap="round"/>
<path opacity="0.91" d="M1191.67 1825.36C1136.66 1740.32 1090.79 1646.93 1004.64 1588.78C951.992 1553.24 882.168 1522.45 817.98 1519.72C784.693 1518.3 752.477 1536.3 719.988 1541.74C651.883 1553.14 594.831 1504.88 550.441 1459.1C506.484 1413.77 447.239 1330.55 377.399 1327.69C349.632 1326.56 322.452 1343.91 297.349 1353.64C272.582 1363.23 248.909 1370.32 222.128 1369.8C172.612 1368.84 114.133 1360.91 72.0092 1333.34C38.6353 1311.5 2.93553 1282.23 -36.6008 1273.01C-59.1709 1267.75 -78.7448 1271.35 -100.464 1278.93C-158.809 1299.3 -215.282 1332.64 -269.185 1362.17C-396.205 1431.78 -509.353 1519.99 -632.331 1595.73C-729.807 1655.78 -826.65 1695.33 -937.831 1717.18" stroke="#323555" stroke-opacity="0.15" stroke-linecap="round"/>
<path opacity="0.94" d="M1245.22 1820.37C1183.02 1740.54 1129.2 1651.63 1038.34 1601.26C982.826 1570.48 910.617 1545.91 846.469 1548.77C813.203 1550.25 782.698 1570.96 750.825 1579.19C684.01 1596.45 622.994 1553.4 574.801 1511.71C527.078 1470.43 460.829 1392.8 391.042 1396.02C363.296 1397.3 337.749 1416.92 313.604 1428.78C289.781 1440.48 266.83 1449.59 240.12 1451.4C190.734 1454.74 131.817 1451.93 87.4699 1428.17C52.3348 1409.34 14.2356 1383.33 -25.9338 1377.59C-48.8654 1374.31 -68.0401 1379.6 -89.0034 1389.03C-145.317 1414.36 -198.637 1452.42 -249.728 1486.49C-370.123 1566.77 -475.082 1664.35 -590.917 1750.39C-682.729 1818.59 -775.7 1866.35 -884.493 1897.74" stroke="#323555" stroke-opacity="0.15" stroke-linecap="round"/>
<path opacity="0.97" d="M1299.05 1813.32C1230.16 1739.32 1168.82 1655.55 1073.96 1613.34C1016 1587.55 941.963 1569.39 878.341 1577.81C845.348 1582.18 816.78 1605.43 785.762 1616.39C720.74 1639.37 656.233 1601.85 604.613 1564.57C553.497 1527.66 480.763 1456.19 411.559 1465.46C384.044 1469.14 360.318 1490.89 337.311 1504.78C314.611 1518.49 292.552 1529.55 266.115 1533.67C217.234 1541.29 158.326 1543.62 112.098 1523.84C75.4727 1508.16 35.2694 1485.6 -5.22713 1483.38C-28.3454 1482.12 -46.9768 1489.04 -67.0276 1500.24C-120.89 1530.34 -170.661 1572.84 -218.561 1611.18C-331.437 1701.5 -427.436 1807.7 -535.269 1903.36C-620.74 1979.19 -709.145 2034.79 -814.731 2075.48" stroke="#323555" stroke-opacity="0.15" stroke-linecap="round"/>
<path d="M1353 1804.21C1277.96 1736.59 1209.58 1658.6 1111.46 1624.87C1051.5 1604.26 976.196 1592.64 913.58 1606.55C881.109 1613.77 854.689 1639.38 824.759 1652.98C762.019 1681.5 694.52 1649.79 639.875 1617.2C585.763 1584.93 507.115 1520.16 439.016 1535.41C411.94 1541.47 390.21 1565.17 368.512 1580.99C347.104 1596.6 326.104 1609.52 300.139 1615.92C252.132 1627.76 193.68 1635.2 145.927 1619.54C108.094 1607.14 66.0974 1588.19 25.5819 1589.51C2.45274 1590.26 -15.4955 1598.77 -34.4842 1611.66C-85.4939 1646.29 -131.348 1692.9 -175.703 1735.2C-280.225 1834.88 -366.561 1948.88 -465.597 2053.43C-544.095 2136.29 -627.277 2199.29 -728.865 2248.96" stroke="#323555" stroke-opacity="0.15" stroke-linecap="round"/>
</g>
<defs>
<clipPath id="clip0_4022_4">
<rect width="1600" height="1531" fill="white"/>
</clipPath>
</defs>
</svg>
