<svg width="1600" height="1105" viewBox="0 0 1600 1105" fill="none" xmlns="http://www.w3.org/2000/svg">
<g clip-path="url(#clip0_27_2232)">
<path opacity="0.43" d="M290.719 1315.81C216.887 1248.21 133.284 1188.04 91.2541 1094.88C65.5723 1037.95 47.5352 965.21 56.0394 902.67C60.4495 870.238 83.7168 842.127 94.7126 811.627C117.763 747.691 80.3685 684.347 43.2017 633.668C6.39723 583.483 -64.8994 512.103 -55.5377 444.075C-51.8157 417.028 -30.0586 393.679 -16.1441 371.047C-2.41542 348.718 8.65979 327.023 12.8164 301.035C20.5019 252.984 22.9095 195.085 3.21154 149.68C-12.3946 113.707 -34.8819 74.2275 -37.0367 34.4305C-38.2669 11.7115 -31.3238 -6.60939 -20.1032 -26.3314C10.0389 -79.3109 52.5742 -128.286 90.9374 -175.418C181.339 -286.482 287.569 -380.982 383.292 -487.097C459.165 -571.207 514.836 -658.171 555.636 -762" stroke="white" stroke-opacity="0.1" stroke-linecap="round"/>
<path opacity="0.46" d="M261.872 1329.95C194.307 1256.21 116.375 1189.02 82.6726 1092.59C62.0788 1033.67 50.4664 959.672 64.3696 898.141C71.5794 866.232 97.1724 840.269 110.766 810.858C139.261 749.204 107.574 682.874 75.0109 629.175C42.7654 576 -21.9481 498.714 -6.7144 431.794C-0.657689 405.187 23.0185 383.834 38.8304 362.512C54.4312 341.474 67.337 320.837 73.7339 295.323C85.5616 248.147 92.9958 190.707 77.3519 143.781C64.9577 106.603 46.0234 65.3334 47.3435 25.5195C48.097 2.79085 56.5986 -14.8466 69.4774 -33.5065C104.074 -83.6328 150.651 -128.693 192.917 -172.28C292.514 -274.992 406.417 -359.833 510.879 -457.154C593.678 -534.293 656.629 -616.034 706.253 -715.863" stroke="white" stroke-opacity="0.1" stroke-linecap="round"/>
<path opacity="0.49" d="M230.964 1344.03C170.175 1264.72 98.5009 1191.03 73.3732 1092.09C58.0192 1031.63 52.9135 956.937 72.1045 896.88C82.0566 865.736 109.778 842.112 125.863 814.01C159.581 755.1 133.837 686.298 106.121 629.995C78.6754 574.242 21.0308 491.656 42.015 426.348C50.358 400.383 75.7713 381.182 93.3585 361.327C110.711 341.738 125.347 322.313 133.934 297.465C149.809 251.521 162.209 194.974 150.734 146.888C141.643 108.791 126.402 66.0508 131.184 26.5227C133.913 3.95722 143.907 -12.8646 158.344 -30.3235C197.128 -77.2236 247.388 -118.036 293.231 -157.758C401.259 -251.361 521.96 -325.924 634.357 -413.735C723.445 -483.337 793.19 -559.249 851.253 -654.33" stroke="white" stroke-opacity="0.1" stroke-linecap="round"/>
<path opacity="0.52" d="M198.011 1357.86C144.452 1273.61 79.5744 1194 63.2042 1093.3C53.2014 1031.77 54.6347 956.951 78.9626 898.822C91.5786 868.677 121.216 847.565 139.668 820.983C178.347 765.259 158.736 694.514 136.073 636.044C113.631 578.144 63.4859 490.901 90.0555 427.7C100.619 402.572 127.575 385.663 146.802 367.424C165.772 349.427 182.027 331.359 192.735 307.364C212.534 262.998 229.8 207.773 222.577 158.897C216.855 120.173 205.42 76.2918 213.623 37.3497C218.306 15.1187 229.715 -0.761616 245.599 -16.8899C288.271 -60.2157 341.829 -96.4823 390.898 -132.047C506.526 -215.853 633.103 -279.599 752.573 -357.259C847.268 -418.814 923.27 -488.334 989.322 -577.957" stroke="white" stroke-opacity="0.1" stroke-linecap="round"/>
<path opacity="0.55" d="M163.045 1371.26C117.114 1282.72 59.5183 1197.83 52.0207 1096.14C47.4393 1034.01 55.394 959.64 84.6692 903.876C99.8506 874.958 131.178 856.512 151.854 831.648C195.196 779.526 181.86 707.384 164.416 647.198C147.143 587.599 104.87 496.378 136.818 435.759C149.52 411.658 177.812 397.164 198.531 380.674C218.974 364.404 236.722 347.826 249.469 324.865C273.037 282.412 295.033 228.927 292.113 179.634C289.8 140.581 282.253 95.8967 293.812 57.836C300.411 36.1083 313.146 21.288 330.357 6.60962C376.589 -32.8211 433.035 -64.2774 484.954 -95.4245C607.3 -168.822 738.786 -221.294 864.417 -288.238C963.995 -341.299 1045.67 -403.915 1119.2 -487.411" stroke="white" stroke-opacity="0.1" stroke-linecap="round"/>
<path opacity="0.58" d="M126.113 1384.08C88.1501 1291.94 38.2635 1202.42 39.6854 1100.52C40.5542 1038.26 54.963 964.907 88.9583 911.929C106.588 884.455 139.365 868.81 162.107 845.85C209.779 797.719 202.812 724.734 190.714 663.297C178.734 602.459 144.645 507.967 181.723 450.387C196.465 427.494 225.878 415.52 247.931 400.9C269.69 386.476 288.795 371.511 303.482 349.758C330.637 309.536 357.191 258.194 358.591 208.864C359.701 169.781 356.095 124.636 370.919 87.7458C379.382 66.6859 393.346 53.036 411.75 39.9159C461.189 4.67112 520.094 -21.7474 574.467 -48.2512C702.596 -110.706 837.991 -151.535 968.825 -207.28C1072.53 -251.465 1159.25 -306.716 1239.7 -383.464" stroke="white" stroke-opacity="0.1" stroke-linecap="round"/>
<path opacity="0.61" d="M87.2775 1396.13C57.5597 1301.1 15.7501 1207.65 26.0701 1106.33C32.3761 1044.42 53.1225 972.64 91.5755 922.845C111.516 897.022 145.495 884.289 170.128 863.403C221.765 819.621 221.211 746.355 214.544 684.14C207.942 622.533 182.284 525.502 224.207 471.393C240.875 449.879 271.185 440.51 294.404 427.868C317.314 415.396 337.629 402.154 354.142 381.771C384.676 344.084 415.582 295.272 421.286 246.282C425.806 207.468 426.164 162.21 444.137 126.769C454.397 106.536 469.484 94.1584 488.941 82.6928C541.21 51.8928 602.124 30.7011 658.538 9.03149C791.475 -42.0322 929.752 -70.9348 1064.79 -115.083C1171.83 -150.076 1262.95 -197.56 1349.69 -266.989" stroke="white" stroke-opacity="0.1" stroke-linecap="round"/>
<path opacity="0.64" d="M46.6144 1407.25C25.3554 1310.08 -8.07215 1213.42 11.0566 1113.45C22.745 1052.36 49.6641 982.704 92.2788 936.466C114.378 912.488 149.3 902.759 175.635 884.102C230.843 844.993 236.699 772.007 235.506 709.494C234.324 647.591 217.28 548.771 263.724 498.539C282.19 478.567 313.167 471.868 337.376 461.296C361.261 450.865 382.632 439.444 400.846 420.585C434.521 385.713 469.542 339.8 479.501 291.524C487.392 253.276 491.706 208.253 512.688 174.529C524.667 155.277 540.76 144.262 561.123 134.535C615.822 108.405 678.285 92.5893 736.311 75.9078C873.047 36.5986 1013.16 19.8138 1151.38 -12.4287C1260.94 -37.9849 1355.75 -77.3563 1448.14 -138.953" stroke="white" stroke-opacity="0.1" stroke-linecap="round"/>
<path opacity="0.67" d="M4.21402 1417.3C-8.43804 1318.72 -33.2437 1219.61 -5.46306 1121.75C11.512 1061.95 44.3921 994.948 90.8414 952.614C114.929 930.66 150.529 924.001 178.367 907.712C236.723 873.565 248.935 801.419 253.217 739.088C257.458 677.364 249.144 577.517 299.753 531.539C319.875 513.259 351.285 509.274 376.299 500.848C400.978 492.535 423.243 483.018 443.016 465.822C479.576 434.028 518.44 391.359 532.575 344.166C543.773 306.777 552.004 262.332 575.833 230.58C589.437 212.454 606.414 202.884 627.527 194.966C684.242 173.694 747.779 163.364 806.978 151.787C946.477 124.506 1087.36 119.939 1227.73 99.8213C1338.98 83.8757 1436.77 52.8997 1534.08 -0.41051" stroke="white" stroke-opacity="0.1" stroke-linecap="round"/>
<path opacity="0.7" d="M-39.8207 1426.12C-43.7841 1326.9 -59.7946 1226.1 -23.585 1131.1C-1.45939 1073.05 37.1246 1009.21 87.0527 971.092C112.944 951.327 148.954 947.782 178.082 933.98C239.141 905.046 257.609 834.293 267.325 772.622C276.947 711.551 277.411 611.447 331.798 570.066C353.421 553.613 385.027 552.368 410.657 546.148C435.944 540.011 458.933 532.467 480.115 517.064C519.279 488.585 561.688 449.48 579.884 403.73C594.299 367.484 606.381 323.959 632.872 294.418C647.996 277.554 665.728 269.499 687.431 263.446C745.732 247.187 809.863 242.408 869.787 236.013C1010.99 220.943 1151.59 228.602 1293.03 220.737C1405.14 214.503 1505.16 192.141 1606.67 147.508" stroke="white" stroke-opacity="0.1" stroke-linecap="round"/>
<path opacity="0.73" d="M-85.3745 1433.58C-80.6345 1334.49 -87.7446 1232.77 -43.3931 1141.36C-16.2925 1085.5 27.6952 1025.3 80.7201 991.685C108.218 974.256 144.365 973.847 174.561 962.633C237.861 939.124 262.433 870.304 277.501 809.764C292.422 749.815 301.647 650.223 359.395 613.748C382.355 599.245 413.918 600.744 439.969 596.773C465.672 592.855 489.211 587.338 511.64 573.842C553.11 548.889 598.738 513.642 620.851 469.683C638.37 434.856 654.204 392.583 683.154 365.476C699.681 350.001 718.034 343.52 740.162 339.376C799.607 328.243 863.849 329.041 924.045 327.866C1065.89 325.097 1205.15 344.898 1346.6 349.32C1458.72 352.826 1560.21 339.233 1665.14 303.602" stroke="white" stroke-opacity="0.1" stroke-linecap="round"/>
<path opacity="0.76" d="M-132.321 1439.55C-118.93 1341.35 -117.103 1239.5 -64.9586 1152.37C-33.0963 1099.13 15.9538 1043.02 71.6707 1014.16C100.564 999.2 136.577 1001.92 167.612 993.379C232.671 975.465 263.151 909.103 283.448 850.159C303.546 791.79 321.445 693.474 382.114 662.175C406.235 649.731 437.518 653.956 463.794 652.261C489.719 650.588 513.63 647.136 537.134 635.647C580.592 614.406 629.091 583.28 654.947 541.447C675.433 508.305 694.892 467.605 726.079 443.136C743.882 429.166 762.716 424.306 785.103 422.098C845.241 416.167 909.111 422.526 969.126 426.57C1110.55 436.101 1247.41 467.867 1387.81 484.52C1499.09 497.719 1601.3 492.983 1708.85 466.611" stroke="white" stroke-opacity="0.1" stroke-linecap="round"/>
<path opacity="0.79" d="M-180.523 1443.92C-158.6 1347.36 -147.868 1246.17 -88.3392 1163.98C-51.9649 1113.75 1.76814 1062.17 59.7523 1038.28C89.8215 1025.89 125.429 1031.72 157.068 1025.91C223.394 1013.72 259.54 950.321 284.901 893.423C310.015 837.079 336.436 740.793 399.562 714.902C424.66 704.609 455.429 711.523 481.731 712.112C507.682 712.693 531.785 711.329 556.185 701.933C601.301 684.559 652.299 657.786 681.697 618.397C704.988 587.191 727.919 548.375 761.103 526.727C780.046 514.368 799.218 511.163 821.694 510.905C882.073 510.212 945.09 522.073 1004.47 531.296C1144.41 553.031 1277.86 596.499 1416.14 625.232C1525.75 648.006 1627.9 652.147 1737.27 635.22" stroke="white" stroke-opacity="0.1" stroke-linecap="round"/>
<path opacity="0.82" d="M-229.836 1446.6C-199.564 1352.41 -180.027 1252.65 -113.579 1176.03C-72.9763 1129.2 -14.9753 1082.53 44.8345 1063.79C75.8505 1054.06 110.785 1062.95 142.789 1059.91C209.879 1053.52 251.407 993.572 281.631 939.153C311.56 885.264 346.284 791.745 411.388 771.453C437.272 763.385 467.296 772.931 493.427 775.796C519.208 778.623 543.32 779.354 568.432 772.119C614.862 758.74 667.97 736.519 700.68 699.873C726.595 670.839 752.817 634.203 787.744 615.537C807.682 604.881 827.047 603.353 849.443 605.044C909.607 609.587 971.299 626.849 1029.6 641.172C1167 674.924 1296.04 729.741 1431.18 770.314C1538.3 802.474 1639.62 815.446 1749.96 808.079" stroke="white" stroke-opacity="0.1" stroke-linecap="round"/>
<path opacity="0.85" d="M-280.105 1447.48C-241.732 1356.39 -213.559 1258.83 -140.708 1188.35C-96.1926 1145.28 -34.3706 1103.87 26.81 1090.41C58.5369 1083.42 92.5373 1095.29 124.664 1095.04C192.01 1094.5 238.595 1038.45 273.442 986.928C307.949 935.905 350.696 845.866 417.283 831.319C443.756 825.536 472.81 837.636 498.573 842.753C523.992 847.8 547.931 850.618 573.563 845.596C620.954 836.31 675.767 818.804 711.535 785.178C739.873 758.537 769.181 724.358 805.583 708.814C826.364 699.94 845.775 700.098 867.923 703.722C927.42 713.458 987.325 735.981 1044.12 755.287C1177.94 800.781 1301.6 866.508 1432.59 918.594C1536.42 959.878 1636.15 981.568 1746.64 983.804" stroke="white" stroke-opacity="0.1" stroke-linecap="round"/>
<path opacity="0.88" d="M-331.17 1446.51C-285.005 1359.21 -248.43 1264.59 -169.741 1200.78C-121.659 1161.8 -56.4918 1125.96 5.5949 1117.87C37.7916 1113.67 70.6039 1128.43 102.611 1130.97C169.705 1136.28 220.983 1084.55 260.179 1036.31C298.992 988.54 349.42 902.668 416.982 893.971C443.844 890.513 471.712 905.073 496.913 912.398C521.778 919.624 545.365 924.505 571.322 921.731C619.316 916.604 675.415 903.941 713.964 873.589C744.505 849.542 776.67 818.079 814.27 805.771C835.734 798.745 855.045 800.586 876.779 806.113C935.161 820.96 992.832 848.565 1047.68 872.699C1176.94 929.569 1294.31 1005.69 1420.17 1068.87C1519.92 1118.95 1617.32 1149.18 1727.12 1160.99" stroke="white" stroke-opacity="0.1" stroke-linecap="round"/>
<path opacity="0.91" d="M-382.863 1443.61C-329.276 1360.77 -284.597 1269.81 -200.68 1213.16C-149.404 1178.55 -81.3918 1148.55 -18.8702 1145.89C13.552 1144.51 44.9316 1162.04 76.5769 1167.34C142.914 1178.45 198.485 1131.44 241.722 1086.85C284.538 1042.7 342.245 961.644 410.271 958.856C437.318 957.748 463.792 974.652 488.243 984.127C512.368 993.475 535.426 1000.38 561.511 999.872C609.742 998.936 666.702 991.209 707.733 964.359C740.24 943.086 775.013 914.577 813.523 905.597C835.507 900.47 854.573 903.978 875.728 911.363C932.558 931.201 987.565 963.671 1040.07 992.442C1163.79 1060.24 1274 1146.16 1393.79 1219.94C1488.73 1278.42 1583.06 1316.95 1691.35 1338.23" stroke="white" stroke-opacity="0.1" stroke-linecap="round"/>
<path opacity="0.94" d="M-435.016 1438.74C-374.432 1360.99 -322.008 1274.38 -233.512 1225.32C-179.437 1195.34 -109.103 1171.41 -46.6201 1174.19C-14.2181 1175.64 15.4953 1195.8 46.541 1203.82C111.621 1220.64 171.053 1178.7 217.994 1138.1C264.478 1097.89 329.008 1022.27 396.983 1025.41C424.008 1026.66 448.892 1045.77 472.41 1057.32C495.615 1068.72 517.97 1077.59 543.987 1079.35C592.09 1082.61 649.477 1079.87 692.673 1056.72C726.896 1038.39 764.006 1013.05 803.133 1007.46C825.469 1004.27 844.146 1009.41 864.565 1018.6C919.417 1043.27 971.352 1080.35 1021.12 1113.53C1138.39 1191.73 1240.62 1286.77 1353.45 1370.58C1442.88 1437.01 1533.43 1483.53 1639.4 1514.11" stroke="white" stroke-opacity="0.1" stroke-linecap="round"/>
<path opacity="0.97" d="M-487.453 1431.88C-420.35 1359.8 -360.601 1278.2 -268.209 1237.09C-211.753 1211.97 -139.635 1194.28 -77.6648 1202.48C-45.5283 1206.74 -17.7014 1229.38 12.5112 1240.06C75.8447 1262.44 138.677 1225.89 188.956 1189.58C238.746 1153.63 309.591 1084.01 376.999 1093.04C403.799 1096.64 426.909 1117.82 449.319 1131.35C471.43 1144.7 492.916 1155.47 518.666 1159.49C566.278 1166.91 623.657 1169.18 668.685 1149.91C704.359 1134.64 743.518 1112.66 782.964 1110.5C805.482 1109.27 823.629 1116.01 843.16 1126.93C895.624 1156.24 944.102 1197.64 990.759 1234.98C1100.7 1322.96 1194.21 1426.4 1299.24 1519.58C1382.5 1593.44 1468.61 1647.59 1571.45 1687.22" stroke="white" stroke-opacity="0.1" stroke-linecap="round"/>
</g>
<defs>
<clipPath id="clip0_27_2232">
<rect width="1600" height="1105" fill="white"/>
</clipPath>
</defs>
</svg>
