<svg preserveAspectRatio="none" width="1600" height="647" viewBox="0 0 1600 647" fill="none" xmlns="http://www.w3.org/2000/svg">
<g clip-path="url(#clip0_7_129)">
<path opacity="0.047619" d="M901.698 -144.293C901.698 -144.293 1122.4 -93.2944 1236.32 -10.7138C1342.85 66.5079 1456.58 244.241 1456.58 244.241C1456.58 244.241 1589.6 450.966 1718.49 530.778C1821.49 594.557 2011.47 632.774 2011.47 632.774" stroke="white" stroke-opacity="0.05"/>
<path opacity="0.0952381" d="M889.705 -154.956C889.705 -154.956 1105.12 -84.9159 1211.42 7.27965C1310.81 93.4923 1408.61 280.461 1408.61 280.461C1408.61 280.461 1523.11 497.993 1644.56 588.735C1741.61 661.248 1927.52 715.877 1927.52 715.877" stroke="white" stroke-opacity="0.05"/>
<path opacity="0.142857" d="M878.117 -166.1C878.117 -166.1 1086.61 -77.5517 1184.46 23.5571C1275.97 118.105 1357.1 312.886 1357.1 312.886C1357.1 312.886 1452.2 539.569 1565.28 640.55C1655.64 721.246 1836.09 791.871 1836.09 791.871" stroke="white" stroke-opacity="0.05"/>
<path opacity="0.190476" d="M866.973 -177.688C866.973 -177.688 1066.95 -71.3057 1155.62 37.947C1238.54 140.11 1302.39 341.221 1302.39 341.221C1302.39 341.221 1377.37 575.331 1481.22 685.783C1564.2 774.047 1737.81 860.13 1737.81 860.13" stroke="white" stroke-opacity="0.05"/>
<path opacity="0.238095" d="M856.31 -189.68C856.31 -189.68 1046.26 -66.2732 1125.07 50.2917C1198.76 159.292 1244.84 365.203 1244.84 365.203C1244.84 365.203 1299.14 604.957 1392.96 724.039C1467.93 819.2 1633.38 920.087 1633.38 920.087" stroke="white" stroke-opacity="0.05"/>
<path opacity="0.285714" d="M846.162 -202.033C846.162 -202.033 1024.63 -62.5403 1092.98 60.4498C1156.9 175.459 1184.86 384.602 1184.86 384.602C1184.86 384.602 1218.05 628.175 1301.13 754.982C1367.53 856.315 1523.55 971.237 1523.55 971.237" stroke="white" stroke-opacity="0.05"/>
<path opacity="0.333333" d="M836.559 -214.7C836.559 -214.7 1002.19 -60.1831 1059.56 68.2961C1113.21 188.438 1122.84 399.222 1122.84 399.222C1122.84 399.222 1134.67 644.761 1206.39 778.327C1263.7 885.061 1409.11 1013.14 1409.11 1013.14" stroke="white" stroke-opacity="0.05"/>
<path opacity="0.380952" d="M827.524 -227.632C827.524 -227.632 979.06 -59.2675 1025.02 73.723C1067.99 198.083 1059.2 408.905 1059.2 408.905C1059.2 408.905 1049.59 654.54 1109.4 793.848C1157.19 905.172 1290.88 1045.44 1290.88 1045.44" stroke="white" stroke-opacity="0.05"/>
<path opacity="0.428571" d="M819.08 -240.779C819.08 -240.779 955.366 -59.8482 989.555 76.6416C1021.53 204.274 994.401 413.527 994.401 413.527C994.401 413.527 963.418 657.391 1010.85 801.381C1048.76 916.446 1169.72 1067.83 1169.72 1067.83" stroke="white" stroke-opacity="0.05"/>
<path opacity="0.47619" d="M811.243 -254.089C811.243 -254.089 931.241 -61.9683 953.404 76.9819C974.129 206.915 928.87 413.008 928.87 413.008C928.87 413.008 876.751 653.243 911.457 800.82C939.191 918.751 1046.5 1080.1 1046.5 1080.1" stroke="white" stroke-opacity="0.05"/>
<path opacity="0.52381" d="M804.025 -267.508C804.025 -267.508 906.821 -65.6598 916.79 74.6933C926.112 205.938 863.063 407.303 863.063 407.303C863.063 407.303 790.204 642.081 811.916 792.121C829.266 912.02 922.101 1082.11 922.101 1082.11" stroke="white" stroke-opacity="0.05"/>
<path opacity="0.571429" d="M797.432 -280.981C797.432 -280.981 882.245 -70.9422 879.944 69.7457C877.791 201.304 797.432 396.407 797.432 396.407C797.432 396.407 704.389 623.942 712.941 775.303C719.775 896.258 797.432 1073.79 797.432 1073.79" stroke="white" stroke-opacity="0.05"/>
<path opacity="0.619048" d="M791.468 -294.455C791.468 -294.455 857.652 -77.8232 843.098 62.1287C829.488 192.999 732.43 380.355 732.43 380.355C732.43 380.355 619.909 598.915 615.237 750.446C611.503 871.537 673.392 1055.17 673.392 1055.17" stroke="white" stroke-opacity="0.05"/>
<path opacity="0.666667" d="M786.13 -307.874C786.13 -307.874 833.182 -86.2981 806.485 51.8527C781.52 181.038 668.503 359.223 668.503 359.223C668.503 359.223 537.361 567.145 519.5 717.691C505.227 837.996 550.875 1026.32 550.875 1026.32" stroke="white" stroke-opacity="0.05"/>
<path opacity="0.714286" d="M781.41 -321.184C781.41 -321.184 808.971 -96.3501 770.336 38.9482C734.207 165.467 606.089 333.123 606.089 333.123C606.089 333.123 457.326 528.824 426.411 677.241C401.707 795.843 430.769 987.429 430.769 987.429" stroke="white" stroke-opacity="0.05"/>
<path opacity="0.761905" d="M777.298 -334.331C777.298 -334.331 785.158 -107.951 734.878 23.4654C687.86 146.353 545.617 302.206 545.617 302.206C545.617 302.206 380.363 484.196 336.631 629.354C301.684 745.352 313.937 938.742 313.937 938.742" stroke="white" stroke-opacity="0.05"/>
<path opacity="0.809524" d="M773.776 -347.263C773.776 -347.263 761.876 -121.059 700.333 5.47437C642.784 123.797 487.499 266.659 487.499 266.659C487.499 266.659 307.013 433.554 250.796 574.348C205.871 686.859 201.223 880.581 201.223 880.581" stroke="white" stroke-opacity="0.05"/>
<path opacity="0.857143" d="M770.823 -359.93C770.823 -359.93 739.254 -135.624 666.917 -14.9355C599.274 97.921 432.129 226.705 432.129 226.705C432.129 226.705 237.783 377.235 169.509 512.593C114.95 620.761 93.4352 813.341 93.4352 813.341" stroke="white" stroke-opacity="0.05"/>
<path opacity="0.904762" d="M768.415 -372.282C768.415 -372.282 717.416 -151.582 634.836 -37.6569C557.614 68.8747 379.881 182.601 379.881 182.601C379.881 182.601 173.155 315.62 93.3437 444.513C29.5648 547.513 -8.65263 737.485 -8.65263 737.485" stroke="white" stroke-opacity="0.05"/>
<path opacity="0.952381" d="M766.521 -384.274C766.521 -384.274 696.481 -168.858 604.286 -62.5647C518.073 36.8312 331.104 134.635 331.104 134.635C331.104 134.635 113.572 249.129 22.8303 370.576C-49.683 467.626 -104.312 653.544 -104.312 653.544" stroke="white" stroke-opacity="0.05"/>
<path d="M765.108 -395.863C765.108 -395.863 676.56 -187.371 575.451 -89.5169C480.904 1.98682 286.123 83.1228 286.123 83.1228C286.123 83.1228 59.4394 178.223 -41.5418 291.298C-122.238 381.659 -192.863 562.108 -192.863 562.108" stroke="white" stroke-opacity="0.05"/>
</g>
<defs>
<clipPath id="clip0_7_129">
<rect width="1600" height="647" fill="white"/>
</clipPath>
</defs>
</svg>
