<svg preserveAspectRatio="none" width="1600" height="494" viewBox="0 0 1600 494" fill="none" xmlns="http://www.w3.org/2000/svg">
<g clip-path="url(#clip0_19_242)">
<path d="M397.834 471.806L343.487 508.662C342.959 509.02 342.233 508.79 341.998 508.189L317.85 446.523C317.679 446.086 317.83 445.591 318.214 445.33L372.238 408.629C372.764 408.272 373.488 408.5 373.725 409.097L398.197 470.607C398.371 471.045 398.22 471.544 397.834 471.806Z" stroke="white" stroke-opacity="0.05"/>
<path d="M315.868 497.484L286.569 554.494C286.275 555.067 285.512 555.203 285.018 554.771L235.972 511.903C235.623 511.598 235.524 511.1 235.731 510.696L264.826 453.97C265.119 453.399 265.878 453.261 266.373 453.689L315.623 496.272C315.976 496.577 316.077 497.078 315.868 497.484Z" stroke="white" stroke-opacity="0.05"/>
<path d="M237.336 534.878L238.796 597.918C238.812 598.573 238.194 599.062 237.552 598.904L175.859 583.754C175.418 583.646 175.105 583.259 175.094 582.81L173.591 520.111C173.576 519.458 174.189 518.969 174.831 519.123L236.566 533.932C237.01 534.038 237.326 534.427 237.336 534.878Z" stroke="white" stroke-opacity="0.05"/>
<path d="M260.654 270.634L230.167 328.494C229.869 329.06 229.117 329.198 228.628 328.777L178.742 285.847C178.387 285.542 178.289 285.035 178.505 284.624L208.78 227.054C209.077 226.489 209.825 226.349 210.315 226.766L260.413 269.408C260.771 269.712 260.871 270.222 260.654 270.634Z" stroke="white" stroke-opacity="0.05"/>
<path d="M200.736 331.606L201.595 395.464C201.604 396.109 200.996 396.588 200.358 396.439L137.394 381.698C136.944 381.593 136.623 381.199 136.617 380.743L135.711 317.232C135.702 316.589 136.307 316.109 136.943 316.254L199.954 330.649C200.407 330.753 200.73 331.148 200.736 331.606Z" stroke="white" stroke-opacity="0.05"/>
<path d="M149.291 401.275L179.926 456.036C180.246 456.607 179.932 457.327 179.293 457.49L118.147 473.049C117.707 473.161 117.247 472.965 117.027 472.572L86.5131 418.13C86.194 417.561 86.5044 416.842 87.141 416.677L148.165 400.799C148.607 400.684 149.07 400.879 149.291 401.275Z" stroke="white" stroke-opacity="0.05"/>
<path d="M109.242 474.633L161.209 507.985C161.766 508.342 161.833 509.129 161.344 509.569L115.827 550.528C115.493 550.828 114.999 550.867 114.618 550.624L62.905 517.492C62.3493 517.136 62.28 516.352 62.7652 515.911L108.028 474.732C108.362 474.428 108.86 474.388 109.242 474.633Z" stroke="white" stroke-opacity="0.05"/>
<path d="M48.6202 187.568L48.9453 252.702C48.9485 253.343 48.3493 253.82 47.7194 253.677L-16.0576 239.17C-16.5122 239.067 -16.8356 238.666 -16.8383 238.203L-17.2135 173.422C-17.2172 172.783 -16.6218 172.306 -15.993 172.446L47.8341 186.599C48.2916 186.7 48.6179 187.103 48.6202 187.568Z" stroke="white" stroke-opacity="0.05"/>
<path d="M24.6087 269.185L55.2046 324.975C55.5153 325.542 55.2047 326.252 54.5728 326.419L-7.49002 342.818C-7.93647 342.936 -8.40413 342.737 -8.624 342.337L-39.0991 286.873C-39.4094 286.308 -39.1021 285.6 -38.4731 285.431L23.4691 268.706C23.9171 268.585 24.3881 268.783 24.6087 269.185Z" stroke="white" stroke-opacity="0.05"/>
<path d="M12.0887 354.501L64.5263 388.397C65.0755 388.752 65.1372 389.534 64.651 389.977L18.3412 432.19C18.0048 432.496 17.5058 432.539 17.1256 432.294L-35.0561 398.621C-35.604 398.268 -35.6678 397.489 -35.1855 397.045L10.8684 354.608C11.2048 354.298 11.7068 354.254 12.0887 354.501Z" stroke="white" stroke-opacity="0.05"/>
<path d="M11.2779 437.744L72.403 442.851C73.0607 442.906 73.4876 443.568 73.2639 444.185L52.5199 501.459C52.3665 501.882 51.947 502.15 51.496 502.113L-9.30364 497.081C-9.95946 497.027 -10.3869 496.368 -10.1672 495.751L10.2514 438.403C10.4033 437.976 10.8247 437.706 11.2779 437.744Z" stroke="white" stroke-opacity="0.05"/>
<path d="M19.6672 513.837L74.8842 490.28C75.4923 490.02 76.1799 490.401 76.2721 491.048L84.6275 549.687C84.691 550.133 84.4444 550.566 84.0262 550.745L29.1252 574.218C28.5191 574.477 27.8328 574.1 27.7373 573.455L19.0659 514.9C18.9997 514.453 19.2467 514.016 19.6672 513.837Z" stroke="white" stroke-opacity="0.05"/>
<path d="M-89.2932 480.613L-33.2672 456.672C-32.6621 456.413 -31.9765 456.796 -31.883 457.446L-23.2419 517.423C-23.1775 517.87 -23.4225 518.305 -23.8393 518.484L-79.5445 542.34C-80.1476 542.598 -80.8319 542.218 -80.9287 541.571L-89.8905 481.68C-89.9577 481.23 -89.7122 480.792 -89.2932 480.613Z" stroke="white" stroke-opacity="0.05"/>
</g>
<defs>
<clipPath id="clip0_19_242">
<rect width="1600" height="504" fill="white"/>
</clipPath>
</defs>
</svg>
