<svg width="160" height="160" viewBox="0 0 160 160" fill="none" xmlns="http://www.w3.org/2000/svg">
<rect width="160" height="160" rx="80" fill="white"/>
<path fill-rule="evenodd" clip-rule="evenodd" d="M50 55.4502L50 48.6619C49.9999 46.5004 49.9998 44.555 50.1188 42.9367C50.2463 41.2036 50.5347 39.3621 51.3624 37.5571C52.5609 34.9438 54.4731 32.8191 56.8251 31.4875C58.4496 30.5678 60.107 30.2473 61.6669 30.1057C63.1235 29.9735 64.8741 29.9736 66.8196 29.9737L89.1863 29.9737L89.4415 29.9732C90.3911 29.9704 91.5867 29.9668 92.7634 30.2807C93.7838 30.5529 94.7592 31.0018 95.6539 31.611C96.6857 32.3135 97.5289 33.2555 98.1986 34.0035L98.3787 34.2043L106.192 42.8861L106.373 43.0863C107.046 43.8303 107.894 44.7672 108.526 45.9136C109.075 46.9077 109.479 47.9915 109.724 49.1252C110.006 50.4326 110.003 51.7611 110 52.8161L110 53.0997V55.4503L127.071 74.4179C128.946 76.5016 130 79.3277 130 82.2745V113.306C130 122.511 123.284 129.973 115 129.973H45C36.7157 129.973 30 122.511 30 113.306V82.2745C30 79.3277 31.0536 76.5016 32.9289 74.4179L50 55.4502ZM67 41.0847H80L80 49.0396C79.9999 50.4417 79.9997 51.8072 80.0847 52.9636C80.1781 54.2335 80.3985 55.732 81.09 57.2399C82.0487 59.3306 83.5785 61.0303 85.4601 62.0956C86.8172 62.8639 88.1659 63.1087 89.3089 63.2125C90.3496 63.3069 91.5786 63.3068 92.8405 63.3066L100 63.3066V84.0628C99.9729 84.0993 99.9461 84.1357 99.9196 84.1721C99.2686 85.0649 98.6093 86.164 97.9627 87.2421L93.8084 94.1659C93.0311 95.4614 92.632 96.1166 92.3108 96.557L92.2948 96.5789L92.2695 96.5816C91.7615 96.6342 91.0495 96.6398 89.6482 96.6398H70.3518C68.9505 96.6398 68.2385 96.6342 67.7305 96.5816L67.7052 96.5789L67.6892 96.557C67.368 96.1166 66.9689 95.4614 66.1916 94.1659L62.0373 87.2421C61.3906 86.164 60.7314 85.0648 60.0804 84.1721C60.0539 84.1358 60.0271 84.0993 60 84.0628V48.8624C60 46.4372 60.0039 44.9524 60.0856 43.8415C60.1236 43.324 60.1714 43.0109 60.2118 42.8208C60.2309 42.7303 60.247 42.6747 60.2566 42.6446C60.2659 42.6157 60.2725 42.6013 60.2725 42.6013C60.5122 42.0787 60.8946 41.6537 61.365 41.3874C61.365 41.3874 61.378 41.3801 61.404 41.3698C61.431 41.3591 61.4811 41.3412 61.5625 41.3199C61.7337 41.2752 62.0154 41.222 62.4812 41.1798C63.481 41.089 64.8173 41.0847 67 41.0847ZM50 79.9733L50 71.1635L42.0711 79.9733L49.8134 79.9733C49.8756 79.9733 49.9378 79.9733 50 79.9733ZM110 71.1635V79.9733C110.062 79.9733 110.124 79.9733 110.187 79.9733L117.929 79.9733L110 71.1635ZM90.4057 41.0981C90.2969 41.0925 90.1693 41.0893 90 41.0873V48.8624C90 50.5097 90.0039 51.4111 90.0515 52.0588L90.0573 52.132L90.1232 52.1384C90.7061 52.1913 91.5174 52.1956 93 52.1956H99.9976C99.9959 52.0075 99.9929 51.8658 99.988 51.7449L99.9871 51.725L99.975 51.7102C99.8148 51.5151 99.5845 51.2574 99.1213 50.7428L91.3076 42.061C90.8445 41.5464 90.6125 41.2905 90.4369 41.1124L90.4236 41.099L90.4057 41.0981ZM40 113.306V91.0843H49.6482C51.0495 91.0843 51.7615 91.0898 52.2695 91.1425L52.2948 91.1452L52.3108 91.1671C52.632 91.6075 53.0311 92.2626 53.8084 93.5581L57.9627 100.482C58.6094 101.56 59.2686 102.659 59.9196 103.552C60.6666 104.576 61.6147 105.638 62.9573 106.436C64.3 107.234 65.6208 107.522 66.8022 107.645C67.8318 107.751 69.0206 107.751 70.1866 107.751H89.8134C90.9794 107.751 92.1682 107.751 93.1978 107.645C94.3792 107.522 95.7 107.234 97.0427 106.436C98.3853 105.638 99.3335 104.576 100.08 103.552C100.731 102.659 101.391 101.56 102.037 100.482L106.192 93.5581C106.969 92.2626 107.368 91.6075 107.689 91.1671L107.705 91.1452L107.731 91.1425C108.239 91.0898 108.951 91.0843 110.352 91.0843H120V113.306C120 116.374 117.761 118.862 115 118.862H45C42.2386 118.862 40 116.374 40 113.306Z" fill="#363958"/>
</svg>
