<svg width="160" height="160" viewBox="0 0 160 160" fill="none" xmlns="http://www.w3.org/2000/svg">
<rect width="160" height="160" rx="80" transform="matrix(1 0 0 -1 0 160)" fill="white"/>
<path fill-rule="evenodd" clip-rule="evenodd" d="M122.545 93.6801C127.983 95.2472 132 100.775 132 107.353C132 117.099 124.945 125 116.242 125H43.7576C35.0549 125 28 117.099 28 107.353C28 100.775 32.0174 95.2473 37.4545 93.6801C37.4545 93.6801 37.4545 66.1591 37.4545 56.1765C37.4545 46.1938 37.4545 41.2024 40.2237 38.1012C42.9928 35 47.4497 35 56.3636 35H79.9999H103.636C112.55 35 117.007 35 119.776 38.1012C122.545 41.2024 122.545 46.1938 122.545 56.1765V93.6801ZM40.6061 113.467C41.0938 113.783 41.6228 114.028 42.1818 114.189C42.6855 114.335 43.2135 114.412 43.7576 114.412H116.242C116.787 114.412 117.315 114.335 117.818 114.189C118.377 114.028 118.906 113.783 119.394 113.467C121.278 112.247 122.545 109.966 122.545 107.353C122.545 105.404 121.134 103.824 119.394 103.824H40.6061C38.8655 103.824 37.4545 105.404 37.4545 107.353C37.4545 109.966 38.7221 112.247 40.6061 113.467ZM47.2492 45.8815C49.0474 45.6107 51.6394 45.5882 56.3636 45.5882H103.636C108.36 45.5882 110.953 45.6107 112.751 45.8815L112.82 45.892L112.829 45.9691C113.071 47.983 113.091 50.8858 113.091 56.1765V93.2353H46.909V56.1765C46.909 50.8858 46.9291 47.983 47.1709 45.9691L47.1803 45.892L47.2492 45.8815Z" fill="#363958"/>
</svg>
