<svg width="160" height="160" viewBox="0 0 160 160" fill="none" xmlns="http://www.w3.org/2000/svg">
<rect y="0.00683594" width="160" height="160" rx="80" fill="white"/>
<path fill-rule="evenodd" clip-rule="evenodd" d="M58.8571 61.8755C58.8571 59.0166 61.2236 56.699 64.1429 56.699H95.8571C98.7764 56.699 101.143 59.0166 101.143 61.8755C101.143 64.7344 98.7764 67.052 95.8571 67.052H64.1429C61.2236 67.052 58.8571 64.7344 58.8571 61.8755ZM58.8571 82.5814C58.8571 79.7225 61.2236 77.4049 64.1429 77.4049H95.8571C98.7764 77.4049 101.143 79.7225 101.143 82.5814C101.143 85.4403 98.7764 87.7579 95.8571 87.7579H64.1429C61.2236 87.7579 58.8571 85.4403 58.8571 82.5814ZM58.8571 103.287C58.8571 100.428 61.2236 98.1108 64.1429 98.1108H85.2857C88.2049 98.1108 90.5714 100.428 90.5714 103.287C90.5714 106.146 88.2049 108.464 85.2857 108.464H64.1429C61.2236 108.464 58.8571 106.146 58.8571 103.287ZM95.8571 46.3461H64.1429C58.8606 46.3461 55.9623 46.3681 53.9517 46.6328C53.9512 46.6329 53.9507 46.633 53.9502 46.633C53.9055 46.6389 53.8703 46.6739 53.8642 46.7186C53.5939 48.6876 53.5714 51.5259 53.5714 56.699V103.287C53.5714 108.46 53.5939 111.299 53.8642 113.268C53.8703 113.312 53.9055 113.347 53.9502 113.353C53.9507 113.353 53.9512 113.353 53.9517 113.354C55.9623 113.618 58.8606 113.64 64.1429 113.64H95.8571C101.139 113.64 104.038 113.618 106.048 113.354C106.049 113.353 106.049 113.353 106.05 113.353C106.094 113.347 106.13 113.312 106.136 113.268C106.406 111.299 106.429 108.46 106.429 103.287V56.699C106.429 51.5259 106.406 48.6876 106.136 46.7186C106.13 46.6739 106.094 46.6389 106.05 46.633C106.049 46.633 106.049 46.6329 106.048 46.6328C104.038 46.3681 101.139 46.3461 95.8571 46.3461ZM46.0963 39.0255C43 42.0578 43 46.9382 43 56.699V103.287C43 113.048 43 117.929 46.0963 120.961C49.1926 123.993 54.176 123.993 64.1429 123.993H95.8571C105.824 123.993 110.807 123.993 113.904 120.961C117 117.929 117 113.048 117 103.287V56.699C117 46.9382 117 42.0578 113.904 39.0255C110.807 35.9932 105.824 35.9932 95.8571 35.9932H64.1429C54.176 35.9932 49.1926 35.9932 46.0963 39.0255Z" fill="#363958"/>
</svg>
