<svg width="32" height="32" viewBox="0 0 32 32" fill="none" xmlns="http://www.w3.org/2000/svg">
<path d="M5 10.6666C5 9.3813 5.00212 8.51788 5.08871 7.87384C5.17144 7.25855 5.3144 6.99522 5.48816 6.82147C5.66191 6.64771 5.92524 6.50475 6.54052 6.42203C7.18457 6.33544 8.04799 6.33331 9.33333 6.33331H22.6667C23.952 6.33331 24.8154 6.33544 25.4595 6.42203C26.0748 6.50475 26.3381 6.64771 26.5118 6.82147C26.6856 6.99522 26.8286 7.25855 26.9113 7.87384C26.9979 8.51788 27 9.3813 27 10.6666V21.6666H5V10.6666Z" stroke="#81899A" stroke-width="2"/>
<path d="M27.1111 21.6667H4.88889C3.84568 21.6667 3 22.5124 3 23.5556C3 25.0897 4.24365 26.3334 5.77778 26.3334H26.2222C27.7563 26.3334 29 25.0897 29 23.5556C29 22.5124 28.1543 21.6667 27.1111 21.6667Z" stroke="#81899A" stroke-width="2"/>
</svg>
