<svg width="31" height="30" viewBox="0 0 31 30" fill="none" xmlns="http://www.w3.org/2000/svg">
<path fill-rule="evenodd" clip-rule="evenodd" d="M4.30124 4.84202C4.08325 5.26984 4.08325 5.8299 4.08325 6.95V8.76835L26.5832 6.7229C26.5822 5.75215 26.568 5.2399 26.3653 4.84202C26.1735 4.46569 25.8676 4.15973 25.4912 3.96799C25.0634 3.75 24.5034 3.75 23.3833 3.75H7.28325C6.16315 3.75 5.60309 3.75 5.17527 3.96799C4.79895 4.15973 4.49299 4.46569 4.30124 4.84202ZM26.5833 8.73114L20.2058 9.3109L23.3819 26.25H23.3833C24.5034 26.25 25.0634 26.25 25.4912 26.032C25.8676 25.8403 26.1735 25.5343 26.3653 25.158C26.5833 24.7302 26.5833 24.1701 26.5833 23.05V8.73114ZM21.3471 26.25L18.2051 9.49279L4.08325 10.7766V23.05C4.08325 24.1701 4.08325 24.7302 4.30124 25.158C4.49299 25.5343 4.79895 25.8403 5.17527 26.032C5.60309 26.25 6.16315 26.25 7.28325 26.25H21.3471ZM15.9583 18.7868C15.9583 21.5703 13.1114 23.4994 12.0106 24.1413C11.7442 24.2966 11.4223 24.2966 11.1559 24.1413C10.0551 23.4994 7.20825 21.5703 7.20825 18.7868C7.20825 16.1397 9.32809 14.375 11.5833 14.375C13.9166 14.375 15.9583 16.1397 15.9583 18.7868Z" fill="#323555"/>
<circle cx="11.5833" cy="18.75" r="1.25" fill="#323555"/>
</svg>
