<svg width="31" height="30" viewBox="0 0 31 30" fill="none" xmlns="http://www.w3.org/2000/svg">
<path fill-rule="evenodd" clip-rule="evenodd" d="M4.96193 7.12868C4.08325 8.00736 4.08325 9.42157 4.08325 12.25V17.75C4.08325 20.5784 4.08325 21.9926 4.96193 22.8713C5.84061 23.75 7.25482 23.75 10.0833 23.75H20.5833C23.4117 23.75 24.8259 23.75 25.7046 22.8713C26.5833 21.9926 26.5833 20.5784 26.5833 17.75V12.25C26.5833 9.42157 26.5833 8.00736 25.7046 7.12868C24.8259 6.25 23.4117 6.25 20.5833 6.25H10.0833C7.25482 6.25 5.84061 6.25 4.96193 7.12868ZM8.38795 10.4179C7.92842 10.1116 7.30755 10.2358 7.0012 10.6953C6.69485 11.1548 6.81902 11.7757 7.27855 12.0821L14.2239 16.7122C14.8957 17.1601 15.7709 17.1601 16.4427 16.7122L23.388 12.0821C23.8475 11.7757 23.9717 11.1548 23.6653 10.6953C23.3589 10.2358 22.7381 10.1116 22.2786 10.4179L15.3333 15.0481L8.38795 10.4179Z" fill="#323555"/>
</svg>
