<svg width="31" height="30" viewBox="0 0 31 30" fill="none" xmlns="http://www.w3.org/2000/svg">
<path d="M8.09637 5.07038L9.95964 3.20711C10.3502 2.81658 10.9833 2.81658 11.3739 3.20711L14.9596 6.79289C15.3502 7.18342 15.3502 7.81658 14.9596 8.20711L12.5423 10.6244C12.1687 10.998 12.0761 11.5688 12.3124 12.0413C13.6784 14.7732 15.8935 16.9884 18.6254 18.3543C19.098 18.5906 19.6687 18.498 20.0424 18.1244L22.4596 15.7071C22.8502 15.3166 23.4833 15.3166 23.8739 15.7071L27.4596 19.2929C27.8502 19.6834 27.8502 20.3166 27.4596 20.7071L25.5964 22.5704C23.485 24.6817 20.1425 24.9193 17.7537 23.1277L14.5453 20.7214C12.8018 19.4138 11.253 17.865 9.94532 16.1214L7.53901 12.913C5.74747 10.5243 5.98502 7.18173 8.09637 5.07038Z" fill="#323555"/>
</svg>
