<svg width="160" height="160" viewBox="0 0 160 160" fill="none" xmlns="http://www.w3.org/2000/svg">
<rect width="160" height="160" rx="80" fill="white"/>
<path fill-rule="evenodd" clip-rule="evenodd" d="M112.899 45.2661H49.45C45.5564 45.2661 42.4 48.3764 42.4 52.2132C42.4 56.05 45.5564 59.1603 49.45 59.1603H97.4571C103.476 59.1603 105.287 59.0948 106.605 58.6405C109.305 57.7095 111.428 55.6175 112.372 52.9568C112.797 51.7605 112.887 50.1515 112.899 45.2661ZM119.568 59.5157C120.243 58.42 120.807 57.2486 121.245 56.0161C122.306 53.0277 122.304 49.5012 122.3 44.7624C122.3 44.4932 122.3 44.22 122.3 43.9428C122.3 43.8905 122.301 43.8294 122.301 43.7607C122.308 43.125 122.321 41.8302 121.904 40.6559C121.196 38.6604 119.603 37.0914 117.578 36.3931C116.387 35.9822 115.073 35.9954 114.428 36.0019C114.358 36.0026 114.296 36.0033 114.243 36.0033H49.45C40.3649 36.0033 33 43.2607 33 52.2132L33 101.148C32.9998 105.253 32.9996 108.791 33.3861 111.624C33.8003 114.66 34.7344 117.57 37.1298 119.93C39.5252 122.291 42.4785 123.211 45.5594 123.619C48.4342 124 52.0242 124 56.1907 124L112.9 124C112.985 124 113.071 124 113.156 124C115.149 124 117.086 124.001 118.683 123.789C120.484 123.55 122.54 122.969 124.247 121.287C125.954 119.605 126.544 117.58 126.786 115.805C127.001 114.23 127 112.322 127 110.358C127 110.274 127 110.19 127 110.106V73.0545C127 72.9704 127 72.8863 127 72.8024C127 70.8384 127.001 68.9297 126.786 67.3555C126.544 65.5807 125.954 63.5555 124.247 61.8733C122.814 60.4611 121.135 59.8248 119.568 59.5157ZM99.8492 68.4231H112.9C115.248 68.4231 116.537 68.4329 117.431 68.5514C117.443 68.5529 117.454 68.5544 117.465 68.556C117.467 68.567 117.468 68.5782 117.47 68.5897C117.59 69.4706 117.6 70.7403 117.6 73.0545V77.6859H103.5C103.415 77.6859 103.329 77.6859 103.244 77.6859C101.251 77.6855 99.3141 77.6851 97.7165 77.8968C95.9155 78.1354 93.8603 78.7167 92.1531 80.3989C90.446 82.0811 89.8561 84.1063 89.6139 85.8811C89.3991 87.4554 89.3995 89.3641 89.3999 91.3281C89.3999 91.412 89.4 91.496 89.4 91.5801C89.4 91.6642 89.3999 91.7482 89.3999 91.8321C89.3995 93.7961 89.3991 95.7049 89.6139 97.2791C89.8561 99.0539 90.446 101.079 92.1532 102.761C93.8603 104.443 95.9155 105.025 97.7165 105.263C99.3141 105.475 101.251 105.475 103.244 105.474C103.329 105.474 103.415 105.474 103.5 105.474H117.6V110.106C117.6 112.42 117.59 113.69 117.47 114.57C117.468 114.582 117.467 114.593 117.465 114.604C117.454 114.606 117.442 114.607 117.431 114.609C116.537 114.727 115.248 114.737 112.9 114.737H56.5C51.9359 114.737 48.9857 114.727 46.8119 114.439C44.7734 114.169 44.1344 113.733 43.7766 113.381C43.4188 113.028 42.9763 112.398 42.7023 110.39C42.41 108.248 42.4 105.34 42.4 100.843V66.8632C44.5368 67.8634 46.9271 68.4231 49.45 68.4231H97.4571C97.7384 68.4231 98.0156 68.4233 98.2888 68.4235C98.8238 68.4238 99.3437 68.4242 99.8492 68.4231ZM117.6 96.2115V86.9487H103.5C101.151 86.9487 99.8629 86.9585 98.969 87.077C98.9574 87.0785 98.946 87.0801 98.9348 87.0816C98.9333 87.0926 98.9317 87.1038 98.9301 87.1153C98.8099 87.9962 98.7999 89.2659 98.7999 91.5801C98.7999 93.8943 98.8099 95.164 98.9301 96.0449C98.9317 96.0564 98.9332 96.0676 98.9348 96.0786C98.946 96.0802 98.9574 96.0817 98.969 96.0832C99.8629 96.2017 101.151 96.2115 103.5 96.2115H117.6Z" fill="#363958"/>
</svg>
